<svg preserveAspectRatio="none" width="100%" height="100%" overflow="visible" style="display: block;" viewBox="0 0 20 20" fill="none" xmlns="http://www.w3.org/2000/svg">
<path id="Union" d="M11.3477 0.267578L12.8301 1.83691L12.9268 1.92383L12.9326 1.92969L14.0811 3.1582L19.6104 9.00879C19.8808 9.28236 20.0092 9.64266 20 10C20.0095 10.3574 19.8797 10.7174 19.6094 10.9912L14.0889 16.834L12.9326 18.0723L12.9268 18.0771C12.8958 18.1082 12.8631 18.1367 12.8301 18.1641L11.0957 20L10.9619 19.6582C10.7042 18.9966 10.6358 18.7779 10.5801 18.3867C10.463 17.5635 10.5753 16.8199 10.9922 16.2559L11.002 16.2422L11.0137 16.2295L15.8535 11.3223H7.21289L1.35547 11.3936H1.35254C0.605916 11.3934 0.00029736 10.7864 0 10.0371C1.15307e-09 10.0249 0.00261255 10.0121 0.00292969 10C0.00260445 9.98831 2.45269e-05 9.97661 0 9.96484C1.6721e-05 9.21528 0.605743 8.60657 1.35254 8.60645H15.833L11.0146 3.77148L11.002 3.75977L10.9922 3.74609C10.5752 3.18211 10.4631 2.43833 10.5801 1.61523C10.6358 1.22386 10.704 1.00462 10.9619 0.342773L11.0957 0L11.3477 0.267578Z" fill="var(--fill-0, #1F3B8A)"/>
</svg>
