<svg preserveAspectRatio="none" width="100%" height="100%" overflow="visible" style="display: block;" viewBox="0 0 456 456" fill="none" xmlns="http://www.w3.org/2000/svg">
<g id="Vector">
<path d="M197.629 456C197.629 456 182.822 311.814 227.275 265.867C260.682 231.358 312.061 229.507 326.604 227.655C341.147 225.804 435.554 224.085 456 228.151C456 228.151 371.124 236.679 335.112 247.522C275.752 265.404 263.386 292.741 256.79 373.23C253.592 412.202 260.451 436.266 197.596 455.967L197.629 456Z" fill="#1E3A8A"/>
<path d="M258.27 0C258.27 0 273.36 143.917 228.916 189.855C195.533 224.374 144.089 226.321 129.528 228.202C114.966 230.083 20.472 231.997 0 227.938C0 227.938 84.9515 219.258 120.976 208.368C180.378 190.416 192.727 163.091 199.166 82.7004C202.302 43.7593 195.401 19.7676 258.27 0Z" fill="var(--fill-0, #D01127)"/>
</g>
</svg>
