<svg preserveAspectRatio="none" width="100%" height="100%" overflow="visible" style="display: block;" viewBox="0 0 16 216" fill="none" xmlns="http://www.w3.org/2000/svg">
<g id="Frame 35279">
<path id="." d="M7.90943 16C5.65535 16 3.76352 15.2553 2.23396 13.766C0.744654 12.2365 0 10.3447 0 8.09057C0 5.79623 0.744654 3.88428 2.23396 2.35472C3.76352 0.784906 5.65535 0 7.90943 0C10.244 0 12.1761 0.784906 13.7057 2.35472C15.2352 3.88428 16 5.79623 16 8.09057C16 10.3447 15.2352 12.2365 13.7057 13.766C12.1761 15.2553 10.244 16 7.90943 16Z" fill="var(--fill-0, #1E3A8A)"/>
<path id="._2" d="M7.90943 116C5.65535 116 3.76352 115.255 2.23396 113.766C0.744654 112.236 0 110.345 0 108.091C0 105.796 0.744654 103.884 2.23396 102.355C3.76352 100.785 5.65535 100 7.90943 100C10.244 100 12.1761 100.785 13.7057 102.355C15.2352 103.884 16 105.796 16 108.091C16 110.345 15.2352 112.236 13.7057 113.766C12.1761 115.255 10.244 116 7.90943 116Z" fill="var(--fill-0, #1E3A8A)"/>
<path id="._3" d="M7.90943 216C5.65535 216 3.76352 215.255 2.23396 213.766C0.744654 212.236 0 210.345 0 208.091C0 205.796 0.744654 203.884 2.23396 202.355C3.76352 200.785 5.65535 200 7.90943 200C10.244 200 12.1761 200.785 13.7057 202.355C15.2352 203.884 16 205.796 16 208.091C16 210.345 15.2352 212.236 13.7057 213.766C12.1761 215.255 10.244 216 7.90943 216Z" fill="var(--fill-0, #1E3A8A)"/>
</g>
</svg>
