<svg preserveAspectRatio="none" width="100%" height="100%" overflow="visible" style="display: block;" viewBox="0 0 300 300" fill="none" xmlns="http://www.w3.org/2000/svg">
<g id="Amedicase sign" opacity="0.8">
<path d="M130.019 300C130.019 300 120.277 205.141 149.523 174.913C171.501 152.209 205.303 150.991 214.871 149.773C224.439 148.555 286.549 147.425 300 150.1C300 150.1 244.16 155.71 220.469 162.843C181.416 174.608 173.28 192.593 168.941 245.546C166.837 271.186 171.349 287.017 129.997 299.978L130.019 300Z" fill="var(--fill-0, #F1F5FF)"/>
<path d="M169.915 0C169.915 0 179.842 94.6824 150.603 124.904C128.64 147.614 94.7956 148.895 85.2156 150.133C75.6356 151.37 13.4684 152.63 0 149.959C0 149.959 55.8891 144.249 79.5892 137.084C118.669 125.273 126.794 107.297 131.03 54.4082C133.094 28.789 128.554 13.005 169.915 0Z" fill="var(--fill-0, #F1F5FF)"/>
</g>
</svg>
