<svg width="24" height="24" viewBox="0 0 24 24" fill="none" xmlns="http://www.w3.org/2000/svg">
  <path d="M6.5 3.5C6.8 3.2 7.2 3 7.6 3H10C10.5 3 10.9 3.3 11 3.8L11.6 6.6C11.7 7.1 11.5 7.6 11.1 7.8L9.3 8.7C10.2 10.6 11.8 12.2 13.7 13.1L14.6 11.3C14.8 10.9 15.3 10.7 15.8 10.8L18.6 11.4C19.1 11.5 19.4 11.9 19.4 12.4V14.8C19.4 15.2 19.2 15.6 18.9 15.9L17.4 17.4C17 17.8 16.4 18 15.9 17.9C10.8 17.2 6.8 13.2 6.1 8.1C6 7.6 6.2 7 6.6 6.6L8.1 5.1C8.4 4.8 8.8 4.6 9.2 4.6H9.5" stroke="#1E3A8A" stroke-width="1.5" stroke-linecap="round" stroke-linejoin="round"/>
</svg>
