<svg preserveAspectRatio="none" width="100%" height="100%" overflow="visible" style="display: block;" viewBox="0 0 261 154" fill="none" xmlns="http://www.w3.org/2000/svg">
<g id="Vector">
<path d="M0 120.514C0 120.514 67.6055 160.391 103.406 153.112C130.303 147.648 146.128 127.21 151.272 121.737C156.417 116.264 184.653 78.3331 188.533 69.0664C188.533 69.0664 159.669 101.535 143.824 113.613C117.699 133.529 100.471 132.137 58.4148 115.902C38.0378 108.044 28.0337 99.6152 0 120.514Z" fill="#D01127"/>
<path d="M260.963 44.7469C260.963 44.7469 191.843 -2.22704 159.79 0.0824526C135.707 1.81286 124.298 19.3193 120.401 23.8895C116.505 28.4597 96.3815 61.0973 94.2656 69.4637C94.2656 69.4637 115.847 42.1369 128.614 32.6366C149.665 16.9696 165.874 20.5441 207.499 41.5608C227.666 51.7349 238.299 61.1062 260.963 44.7469Z" fill="var(--fill-0, #1E3A8A)"/>
</g>
</svg>
