<svg width="150" height="150" viewBox="0 0 150 150" fill="none" xmlns="http://www.w3.org/2000/svg">
<path d="M65.0094 150C65.0094 150 60.1387 102.57 74.7617 87.4563C85.7506 76.1045 102.652 75.4956 107.436 74.8867C112.219 74.2777 143.274 73.7123 150 75.0498C150 75.0498 122.08 77.8551 110.234 81.4216C90.7081 87.3041 86.6401 96.2963 84.4705 122.773C83.4183 135.593 85.6746 143.509 64.9985 149.989L65.0094 150Z" fill="#F1F5FF"/>
<path d="M84.9574 0C84.9574 0 89.9211 47.3412 75.3014 62.4522C64.3202 73.8071 47.3978 74.4476 42.6078 75.0664C37.8178 75.6851 6.73422 76.3148 0 74.9795C0 74.9795 27.9446 72.1245 39.7946 68.5422C59.3347 62.6367 63.397 53.6483 65.515 27.2041C66.5469 14.3945 64.2768 6.50249 84.9574 0Z" fill="#F1F5FF"/>
</svg>
