<svg width="161" height="37" viewBox="0 0 161 37" fill="none" xmlns="http://www.w3.org/2000/svg">
<path d="M44.5682 25.076C43.744 25.076 43.0354 24.8953 42.4341 24.5368C41.8413 24.1698 41.384 23.6871 41.0594 23.0971C40.7432 22.5043 40.5851 21.872 40.5851 21.1945C40.5851 20.4831 40.794 19.8112 41.2146 19.1761C41.6352 18.5409 42.3551 18.0074 43.3742 17.5698C44.4017 17.1238 45.8216 16.8331 47.6311 16.6947C47.5718 17.0984 47.473 17.471 47.3347 17.8126C47.1964 18.1457 47.0101 18.4252 46.7701 18.6482C46.5386 18.8712 46.2422 19.018 45.8837 19.0858C45.4546 19.1535 45.1046 19.2749 44.828 19.4443C44.5541 19.6165 44.3537 19.8254 44.2239 20.0738C44.0968 20.3137 44.0319 20.5763 44.0319 20.8585C44.0319 21.3046 44.19 21.6772 44.509 21.9764C44.8251 22.2757 45.2062 22.4253 45.6523 22.4253C46.1406 22.4253 46.6346 22.2587 47.1315 21.9228C47.6368 21.5812 48.1138 21.1465 48.5599 20.6242V16.7399C48.5599 15.8479 48.3114 15.1365 47.8146 14.6058C47.3262 14.0751 46.6318 13.8097 45.7313 13.8097C45.3107 13.8097 44.8562 13.8521 44.3678 13.9396C43.8795 14.0243 43.3318 14.1795 42.7221 14.4025L41.847 12.1386C42.6091 11.7885 43.3939 11.5373 44.1984 11.3933C45.0143 11.238 45.72 11.1618 46.3213 11.1618C48.1477 11.1618 49.5535 11.6417 50.5387 12.6015C51.5324 13.5613 52.0292 14.9417 52.0292 16.7427V21.4994C52.0292 21.9708 52.0603 22.4761 52.1196 23.0153C52.1788 23.5544 52.2861 24.1303 52.4414 24.7372H49.7935C49.562 24.6102 49.37 24.4295 49.2148 24.1981C49.068 23.9581 48.9438 23.7097 48.8421 23.4528L48.7659 22.939L48.4582 23.3766C47.6876 24.0795 47.0101 24.5368 46.4257 24.7514C45.8499 24.9659 45.2345 25.0732 44.5739 25.0732L44.5682 25.076Z" fill="#D01127"/>
<path d="M71.3098 24.7429V15.3059C71.3098 14.8768 71.2166 14.5267 71.0275 14.2501C70.8383 13.9763 70.5052 13.8379 70.0253 13.8379C69.8701 13.8379 69.7035 13.8605 69.5229 13.9029C69.3422 13.9452 69.1418 13.9763 68.9187 13.9932C68.5066 14.0186 68.134 13.8464 67.8009 13.4794C67.4762 13.1012 67.1968 12.6834 66.9653 12.2204C67.9081 11.8337 68.7042 11.557 69.3563 11.3848C70.0084 11.2042 70.6323 11.1138 71.2335 11.1138C71.8348 11.1138 72.3994 11.2634 72.9555 11.5627C73.5201 11.8619 73.9831 12.322 74.3444 12.9374C74.7029 13.5444 74.8836 14.3178 74.8836 15.2522V24.7401H71.3098V24.7429ZM54.903 24.7429V14.6876C54.903 14.2078 54.8719 13.6968 54.8126 13.1576C54.7618 12.6184 54.663 12.0482 54.5162 11.4469H57.5C57.9122 11.9099 58.1804 12.3672 58.3102 12.8217C58.4401 13.2762 58.5022 13.7617 58.5022 14.2755V24.7401H54.903V24.7429ZM63.1064 24.7429V15.3059C63.1064 14.8768 63.0245 14.5267 62.8636 14.2501C62.7083 13.9763 62.4147 13.8379 61.9772 13.8379C61.8219 13.8379 61.6695 13.8549 61.5142 13.8888C61.359 13.9226 61.1811 13.948 60.9751 13.965C60.5629 13.9904 60.1987 13.8182 59.8826 13.4512C59.5749 13.0729 59.3039 12.6551 59.0724 12.1922C59.9983 11.8139 60.7746 11.5401 61.3985 11.3679C62.0252 11.1957 62.6378 11.111 63.2362 11.111C63.8347 11.111 64.3851 11.2606 64.9074 11.5598C65.4381 11.8591 65.87 12.3192 66.2059 12.9346C66.539 13.5415 66.7084 14.315 66.7084 15.2494V24.7372H63.1092L63.1064 24.7429ZM84.3121 25.076C83.1378 25.076 82.1215 24.8699 81.2662 24.4578C80.408 24.0372 79.7023 23.481 79.1462 22.7866C78.5985 22.0837 78.1892 21.3074 77.9239 20.4605C77.6585 19.6023 77.5258 18.7414 77.5258 17.8775C77.5258 16.4633 77.8251 15.2494 78.4263 14.2388C79.0333 13.2282 79.8491 12.4547 80.8682 11.924C81.8872 11.3848 83.0192 11.1138 84.2613 11.1138C85.2126 11.1138 86.0736 11.303 86.8443 11.6784C87.6234 12.0482 88.2586 12.5705 88.7469 13.248C89.2438 13.9255 89.543 14.7272 89.6474 15.6531C89.7575 16.579 89.6249 17.5953 89.2494 18.699H82.0482C82.2288 18.1062 82.497 17.6094 82.8583 17.2085C83.2168 16.7964 83.6177 16.5903 84.0524 16.5903H86.3418C86.4096 16.0681 86.3644 15.5797 86.2007 15.1252C86.0369 14.6707 85.7716 14.3066 85.4046 14.0327C85.0433 13.7504 84.6029 13.6093 84.0806 13.6093C83.6092 13.6093 83.1434 13.7504 82.6805 14.0327C82.2175 14.315 81.8308 14.761 81.5231 15.3708C81.2238 15.9777 81.0742 16.771 81.0742 17.7477C81.0742 18.7244 81.2238 19.5769 81.5231 20.2799C81.8308 20.9743 82.257 21.505 82.7962 21.8748C83.3439 22.2446 83.979 22.4281 84.6989 22.4281C85.2917 22.4281 85.876 22.3547 86.4604 22.2107C87.0447 22.0555 87.7081 21.8127 88.4534 21.4768L89.3539 23.8678C88.428 24.3053 87.5528 24.613 86.7314 24.7937C85.9184 24.9828 85.111 25.076 84.3149 25.076H84.3121ZM97.0774 25.076C95.8353 25.076 94.771 24.7711 93.8875 24.1642C93.0124 23.546 92.3462 22.7076 91.8832 21.6433C91.4202 20.5706 91.1888 19.3596 91.1888 18.0046C91.1888 17.0956 91.344 16.2346 91.6517 15.4216C91.9594 14.6058 92.38 13.8888 92.9107 13.2621C93.4415 12.6269 94.0455 12.1301 94.7231 11.7716C95.4006 11.4018 96.1063 11.2183 96.8459 11.2183C97.2834 11.2183 97.7125 11.2493 98.1303 11.3086C98.5594 11.3594 99.107 11.4836 99.7761 11.6812C99.5446 12.274 99.2708 12.7539 98.9518 13.1209C98.6441 13.4907 98.2743 13.6968 97.8452 13.7391C97.1423 13.7815 96.5805 13.9932 96.1599 14.3687C95.7478 14.7385 95.4485 15.2353 95.2594 15.8592C95.0787 16.4858 94.9884 17.2 94.9884 18.0074C94.9884 18.8148 95.0957 19.5374 95.3102 20.2065C95.5248 20.8755 95.8325 21.4147 96.2361 21.8268C96.6483 22.2305 97.1395 22.4309 97.7153 22.4309C98.2037 22.4309 98.6893 22.2841 99.1692 21.9934C99.649 21.7026 100.16 21.2481 100.699 20.6299V5.25345H104.273V21.505C104.273 21.9764 104.304 22.4817 104.363 23.0209C104.423 23.5601 104.521 24.136 104.66 24.7429H101.907C101.693 24.6243 101.512 24.4521 101.368 24.2291C101.221 24.0061 101.103 23.7746 101.01 23.5347L100.88 22.9419L100.442 23.5064C99.7733 24.1049 99.1692 24.5171 98.63 24.7401C98.0993 24.9631 97.5798 25.0732 97.0745 25.0732L97.0774 25.076ZM107.573 24.7429V11.4498H111.172V24.7429H107.573ZM109.374 9.69955C108.784 9.69955 108.282 9.49912 107.869 9.09545C107.466 8.6833 107.265 8.18364 107.265 7.59083C107.265 6.99801 107.466 6.47295 107.869 6.06081C108.282 5.64019 108.781 5.43129 109.374 5.43129C109.967 5.43129 110.464 5.64019 110.865 6.06081C111.277 6.47295 111.483 6.98108 111.483 7.59083C111.483 8.20058 111.277 8.6833 110.865 9.09545C110.461 9.49912 109.964 9.69955 109.374 9.69955ZM120.079 25.076C118.887 25.076 117.764 24.836 116.711 24.3561C115.663 23.8763 114.817 23.1225 114.164 22.0922C113.512 21.0646 113.188 19.7266 113.188 18.0808C113.188 16.5282 113.512 15.2381 114.164 14.2106C114.817 13.1746 115.663 12.3983 116.711 11.8845C117.764 11.3707 118.887 11.1138 120.079 11.1138C120.541 11.1138 121.047 11.1618 121.597 11.255C122.145 11.3397 122.678 11.4836 123.192 11.6784L122.317 14.0694C121.905 13.9678 121.498 13.8888 121.095 13.8379C120.7 13.7871 120.361 13.7617 120.079 13.7617C119.46 13.7617 118.921 13.9368 118.458 14.2896C117.995 14.6312 117.634 15.1308 117.377 15.7801C117.12 16.4237 116.99 17.1888 116.99 18.0808C116.99 18.9728 117.12 19.7576 117.377 20.4069C117.634 21.0505 117.995 21.5473 118.458 21.8974C118.921 22.2474 119.46 22.4253 120.079 22.4253C120.44 22.4253 120.824 22.3773 121.236 22.2841C121.648 22.1825 122.128 22.0216 122.676 21.8099L123.551 24.1755C122.882 24.4832 122.252 24.7118 121.662 24.8558C121.069 25.0026 120.544 25.0732 120.081 25.0732L120.079 25.076ZM128.017 25.076C127.192 25.076 126.484 24.8953 125.882 24.5368C125.292 24.1698 124.832 23.6871 124.508 23.0971C124.192 22.5043 124.033 21.872 124.033 21.1945C124.033 20.4831 124.242 19.8112 124.663 19.1761C125.084 18.5409 125.803 18.0074 126.822 17.5698C127.85 17.1238 129.27 16.8331 131.079 16.6947C131.02 17.0984 130.921 17.471 130.783 17.8126C130.645 18.1457 130.458 18.4252 130.218 18.6482C129.987 18.8712 129.691 19.018 129.332 19.0858C128.903 19.1535 128.553 19.2749 128.279 19.4443C128.005 19.6165 127.802 19.8254 127.675 20.0738C127.548 20.3137 127.483 20.5763 127.483 20.8585C127.483 21.3046 127.641 21.6772 127.957 21.9764C128.273 22.2757 128.657 22.4253 129.101 22.4253C129.589 22.4253 130.083 22.2587 130.58 21.9228C131.085 21.5812 131.562 21.1465 132.008 20.6242V16.7399C132.008 15.8479 131.76 15.1365 131.263 14.6058C130.775 14.0751 130.08 13.8097 129.18 13.8097C128.759 13.8097 128.304 13.8521 127.816 13.9396C127.328 14.0243 126.78 14.1795 126.17 14.4025L125.295 12.1386C126.057 11.7885 126.842 11.5373 127.647 11.3933C128.463 11.238 129.168 11.1618 129.77 11.1618C131.596 11.1618 133.002 11.6417 133.987 12.6015C134.981 13.5613 135.478 14.9417 135.478 16.7427V21.4994C135.478 21.9708 135.509 22.4761 135.568 23.0153C135.627 23.5544 135.734 24.1303 135.89 24.7372H133.242C133.01 24.6102 132.818 24.4295 132.663 24.1981C132.516 23.9581 132.392 23.7097 132.29 23.4528L132.214 22.939L131.907 23.3766C131.136 24.0795 130.458 24.5368 129.874 24.7514C129.301 24.9659 128.683 25.0732 128.022 25.0732L128.017 25.076ZM142.492 24.9998C141.823 24.9998 141.061 24.9348 140.203 24.8078C139.345 24.6892 138.343 24.3928 137.194 23.9214L138.015 21.5304C138.811 21.8381 139.523 22.0526 140.149 22.174C140.776 22.2954 141.358 22.3547 141.897 22.3547C142.532 22.3547 142.995 22.222 143.286 21.9567C143.576 21.6828 143.723 21.3864 143.723 21.0703C143.723 20.6835 143.574 20.3617 143.274 20.1048C142.975 19.8395 142.588 19.6024 142.117 19.3963C141.646 19.1817 141.143 18.9587 140.612 18.7272C140.082 18.4958 139.579 18.2248 139.108 17.9171C138.636 17.6009 138.25 17.2142 137.95 16.7597C137.651 16.2967 137.499 15.7265 137.499 15.049C137.499 14.5013 137.648 13.9311 137.95 13.3383C138.258 12.7455 138.761 12.2458 139.455 11.8337C140.149 11.4215 141.084 11.2155 142.258 11.2155C142.843 11.2155 143.438 11.2578 144.045 11.3425C144.655 11.4272 145.369 11.6078 146.193 11.8817L145.372 14.1965C144.703 14.0158 144.164 13.9001 143.752 13.8492C143.348 13.79 142.93 13.7589 142.492 13.7589C142.004 13.7589 141.615 13.8577 141.324 14.0553C141.042 14.2529 140.9 14.5296 140.9 14.8909C140.9 15.2522 141.05 15.5628 141.349 15.8309C141.648 16.0878 142.035 16.3278 142.507 16.5508C142.978 16.7653 143.48 16.9968 144.011 17.2452C144.542 17.4852 145.044 17.7646 145.516 18.0808C145.987 18.397 146.374 18.7894 146.673 19.2495C146.972 19.704 147.122 20.2657 147.122 20.9348C147.122 21.7647 146.905 22.4846 146.467 23.0943C146.03 23.7041 145.457 24.1755 144.745 24.5086C144.042 24.8332 143.291 24.9969 142.495 24.9969L142.492 24.9998ZM155.054 25.076C153.88 25.076 152.864 24.8699 152.009 24.4578C151.15 24.0372 150.445 23.481 149.886 22.7866C149.338 22.0837 148.929 21.3074 148.663 20.4605C148.398 19.6023 148.265 18.7414 148.265 17.8775C148.265 16.4633 148.565 15.2494 149.166 14.2388C149.776 13.2282 150.589 12.4547 151.608 11.924C152.627 11.3848 153.759 11.1138 155.001 11.1138C155.952 11.1138 156.813 11.303 157.584 11.6784C158.363 12.0482 158.998 12.5705 159.486 13.248C159.983 13.9255 160.283 14.7272 160.387 15.6531C160.5 16.579 160.364 17.5953 159.989 18.699H152.788C152.968 18.1062 153.237 17.6094 153.598 17.2085C153.956 16.7964 154.357 16.5903 154.795 16.5903H157.084C157.152 16.0681 157.107 15.5797 156.943 15.1252C156.779 14.6707 156.514 14.3066 156.147 14.0327C155.786 13.7504 155.345 13.6093 154.823 13.6093C154.352 13.6093 153.883 13.7504 153.423 14.0327C152.96 14.315 152.573 14.761 152.265 15.3708C151.966 15.9777 151.817 16.771 151.817 17.7477C151.817 18.7244 151.966 19.5769 152.265 20.2799C152.573 20.9743 152.999 21.505 153.539 21.8748C154.086 22.2446 154.721 22.4281 155.441 22.4281C156.031 22.4281 156.618 22.3547 157.203 22.2107C157.784 22.0555 158.45 21.8127 159.196 21.4768L160.096 23.8678C159.17 24.3053 158.295 24.613 157.474 24.7937C156.661 24.9828 155.853 25.076 155.057 25.076H155.054Z" fill="#1E3A8A"/>
<path d="M40.5823 35.1397L42.5216 29.762H43.2104L45.1498 35.1397H44.396L42.8943 30.8065L42.8434 30.592L42.7926 30.8065L41.9655 33.1806L41.8837 33.3359L41.974 33.3217H42.9733C43.0919 33.3217 43.1907 33.3472 43.2697 33.3951C43.3516 33.4431 43.4165 33.5109 43.4701 33.5899C43.5238 33.6718 43.5689 33.7593 43.6028 33.8525H41.7397L41.2965 35.1397H40.5823ZM50.6375 35.1397V32.3591C50.6375 32.1897 50.598 32.0486 50.5218 31.9413C50.4484 31.8312 50.3327 31.7748 50.1774 31.7748C50.1181 31.7748 50.0616 31.7804 50.0108 31.7945C49.9628 31.8058 49.9036 31.8199 49.8358 31.8341C49.6918 31.8651 49.5592 31.8679 49.4378 31.8369C49.3136 31.8087 49.2007 31.7381 49.0962 31.6336C49.3587 31.4784 49.5846 31.3739 49.7681 31.3231C49.9544 31.2695 50.1153 31.2413 50.248 31.2413C50.4427 31.2413 50.6234 31.278 50.7871 31.3485C50.9537 31.4191 51.0892 31.5433 51.1908 31.7155C51.2924 31.8877 51.3433 32.1276 51.3433 32.4325V35.1397H50.6319H50.6375ZM45.8809 35.1397V32.249C45.8809 32.1107 45.8724 31.9639 45.8555 31.8086C45.8414 31.6534 45.8132 31.4897 45.7708 31.3175H46.3043C46.4229 31.4501 46.5019 31.5828 46.5386 31.7127C46.5753 31.8425 46.5951 31.9837 46.5951 32.1305V35.1397H45.8809ZM48.2635 35.1397V32.3591C48.2635 32.1897 48.2268 32.0486 48.1562 31.9413C48.0884 31.8312 47.9812 31.7748 47.8344 31.7748C47.7751 31.7748 47.7243 31.7804 47.6791 31.7889C47.6339 31.8002 47.5803 31.8115 47.5154 31.8256C47.3714 31.8566 47.2416 31.8595 47.123 31.8284C47.0044 31.7974 46.8943 31.7296 46.7899 31.6252C47.0524 31.4699 47.2726 31.3683 47.4476 31.3175C47.6255 31.2666 47.7807 31.2413 47.9134 31.2413C48.1054 31.2413 48.2804 31.278 48.4413 31.3485C48.6022 31.4191 48.7292 31.5433 48.8252 31.7155C48.9212 31.8877 48.9692 32.1276 48.9692 32.4325V35.1397H48.2578H48.2635ZM53.9827 35.2131C53.7117 35.2131 53.4661 35.1623 53.2431 35.0607C53.0229 34.959 52.8338 34.8179 52.6785 34.64C52.5232 34.4566 52.4047 34.2448 52.32 33.9992C52.2353 33.7536 52.193 33.4826 52.193 33.1919C52.193 32.7939 52.2663 32.4466 52.4103 32.1559C52.5571 31.8623 52.7688 31.6365 53.0398 31.4784C53.3108 31.3175 53.6326 31.2384 54.0053 31.2384C54.2593 31.2384 54.4852 31.2949 54.6771 31.4078C54.8719 31.5179 55.0272 31.6703 55.1457 31.8651C55.2671 32.0571 55.3405 32.2773 55.3687 32.5229C55.3998 32.7684 55.3716 33.0225 55.2925 33.285H53.1471C53.1979 33.1439 53.2713 33.0282 53.3645 32.935C53.4604 32.839 53.5959 32.791 53.7738 32.791H54.7138C54.7364 32.6019 54.7138 32.4297 54.6461 32.2773C54.5811 32.122 54.4852 31.9978 54.3581 31.9075C54.2311 31.8171 54.09 31.772 53.929 31.772C53.723 31.772 53.5395 31.8284 53.3814 31.9385C53.2233 32.0486 53.1019 32.2123 53.0116 32.4269C52.9241 32.6386 52.8789 32.8955 52.8789 33.2004C52.8789 33.5052 52.9297 33.7508 53.0314 33.9738C53.1358 34.1968 53.2741 34.369 53.452 34.4961C53.6298 34.6203 53.8302 34.6796 54.0561 34.6796C54.2255 34.6796 54.3892 34.6626 54.5416 34.6288C54.6941 34.5921 54.8747 34.5215 55.0864 34.4142L55.2699 34.9026C55.0328 35.024 54.8041 35.1058 54.5811 35.1453C54.3581 35.1905 54.1605 35.2131 53.9827 35.2131ZM56.2975 35.1397V32.6104C56.2975 32.3845 56.289 32.153 56.2692 31.9216C56.2523 31.6901 56.2213 31.4868 56.1817 31.3146H56.6927C56.7717 31.3965 56.8282 31.4868 56.8592 31.5856C56.8931 31.6816 56.9213 31.7889 56.9439 31.9075V32.0401L57.0032 31.9075C57.0992 31.7183 57.2375 31.5631 57.4182 31.4445C57.5988 31.3231 57.788 31.2638 57.9884 31.2638C58.0449 31.2638 58.1041 31.2695 58.1634 31.278C58.2227 31.2892 58.2848 31.3034 58.3526 31.3231L58.2622 31.899C58.186 31.8792 58.1183 31.8679 58.059 31.8623C58.0025 31.8566 57.9517 31.8538 57.9065 31.8538C57.7541 31.8538 57.6045 31.8962 57.4577 31.9809C57.3137 32.0655 57.1923 32.1982 57.0992 32.3789C57.006 32.5624 56.958 32.7995 56.958 33.0959V35.1369H56.3003L56.2975 35.1397ZM58.9877 35.1397V31.3146H59.6991V35.1397H58.9877ZM59.3434 30.6513C59.2192 30.6513 59.1119 30.6089 59.0244 30.5242C58.9397 30.4395 58.8974 30.3323 58.8974 30.2052C58.8974 30.0782 58.9397 29.9681 59.0244 29.8834C59.1091 29.7959 59.2164 29.7536 59.3434 29.7536C59.4704 29.7536 59.5805 29.7959 59.6624 29.8834C59.7471 29.9681 59.7894 30.0754 59.7894 30.2052C59.7894 30.3351 59.7471 30.4367 59.6624 30.5242C59.5805 30.6089 59.4761 30.6513 59.3434 30.6513ZM62.2341 35.2159C61.9038 35.2159 61.6017 35.1397 61.3307 34.9873C61.0626 34.8348 60.848 34.609 60.6871 34.3126C60.529 34.0162 60.45 33.6548 60.45 33.2258C60.45 32.7967 60.5319 32.4382 60.6956 32.1446C60.8593 31.8482 61.0795 31.6252 61.3505 31.4727C61.6215 31.3203 61.9151 31.2441 62.2341 31.2441C62.3668 31.2441 62.5135 31.2554 62.6745 31.2808C62.8354 31.3033 62.9878 31.3429 63.1374 31.3993L62.968 31.8792C62.8269 31.8425 62.697 31.8171 62.5785 31.8002C62.4599 31.7832 62.3442 31.7748 62.2341 31.7748C62.0478 31.7748 61.8727 31.8256 61.7118 31.93C61.5538 32.0345 61.4267 32.1926 61.3279 32.4071C61.2319 32.6217 61.184 32.8927 61.184 33.2229C61.184 33.5532 61.2319 33.8299 61.3279 34.0444C61.4239 34.259 61.5509 34.4199 61.709 34.5243C61.8699 34.6288 62.0449 34.6796 62.2341 34.6796C62.3414 34.6796 62.4627 34.6626 62.5926 34.6316C62.7253 34.5977 62.8777 34.5412 63.0471 34.465L63.2306 34.9534C63.0301 35.0522 62.8438 35.1199 62.6688 35.1566C62.4938 35.1933 62.347 35.2131 62.2313 35.2131L62.2341 35.2159ZM64.7324 35.2159C64.4755 35.2159 64.2553 35.1707 64.0661 35.0804C63.8827 34.9873 63.7387 34.8602 63.6371 34.7021C63.5383 34.5441 63.4903 34.3662 63.4903 34.1658C63.4903 33.9174 63.5552 33.7113 63.6851 33.5476C63.8149 33.381 64.0294 33.2483 64.3287 33.1495C64.6307 33.0479 65.0316 32.9689 65.5369 32.9096C65.5284 32.9689 65.5058 33.0394 65.4691 33.1213C65.4381 33.2032 65.3845 33.2766 65.3111 33.3471C65.2377 33.4149 65.136 33.4601 65.0034 33.4798C64.786 33.5137 64.6223 33.5645 64.5065 33.6323C64.3964 33.7 64.3202 33.7762 64.2779 33.8609C64.2383 33.9456 64.2186 34.0331 64.2186 34.1234C64.2186 34.2731 64.2722 34.4057 64.3823 34.5187C64.4896 34.6288 64.6392 34.6852 64.8255 34.6852C64.9921 34.6852 65.1614 34.6429 65.3308 34.561C65.5002 34.4763 65.6583 34.3408 65.7994 34.1545V32.7713C65.7994 32.4777 65.7289 32.2406 65.5849 32.0571C65.4437 31.8736 65.2038 31.7804 64.8679 31.7804C64.7352 31.7804 64.6025 31.7945 64.4726 31.8199C64.3428 31.8482 64.1875 31.8933 64.0097 31.9554L63.8403 31.4981C64.0831 31.3937 64.2948 31.3259 64.4811 31.2949C64.6646 31.2638 64.8396 31.2469 65.0034 31.2469C65.4776 31.2469 65.8446 31.3852 66.1043 31.6619C66.3668 31.9357 66.4967 32.3224 66.4967 32.8221V33.8807C66.4967 34.1771 66.508 34.4283 66.5306 34.64C66.556 34.8461 66.5842 35.0155 66.6152 35.1453H66.1128C66.045 35.103 65.9886 35.0494 65.949 34.9816C65.9095 34.9167 65.8756 34.8433 65.8446 34.7671L65.8361 34.6344L65.7543 34.7671C65.5679 34.9534 65.3929 35.0776 65.232 35.1341C65.0711 35.1905 64.9017 35.2187 64.7239 35.2187L64.7324 35.2159ZM69.9576 35.1425V32.3619C69.9576 32.1926 69.9181 32.0514 69.8418 31.9442C69.7656 31.8341 69.6499 31.7776 69.4975 31.7776C69.4382 31.7776 69.3874 31.7832 69.3422 31.7974C69.297 31.8087 69.2434 31.8228 69.1785 31.8369C69.0345 31.8679 68.9018 31.8708 68.7804 31.8397C68.6562 31.8115 68.5433 31.7409 68.4389 31.6365C68.7014 31.4812 68.9216 31.3768 69.0966 31.3259C69.2744 31.2723 69.4297 31.2441 69.5624 31.2441C69.76 31.2441 69.9435 31.2808 70.11 31.3513C70.2766 31.4219 70.4121 31.5461 70.5137 31.7183C70.6153 31.8905 70.6661 32.1305 70.6661 32.4353V35.1425H69.9548H69.9576ZM67.5327 35.1425V32.2518C67.5327 32.1135 67.5242 31.9667 67.5073 31.8115C67.4932 31.6562 67.465 31.4925 67.4226 31.3203H67.9561C68.0747 31.453 68.1509 31.5856 68.1904 31.7155C68.2271 31.8454 68.2469 31.9865 68.2469 32.1333V35.1425H67.5327ZM73.4241 35.1425L74.0226 29.7649H74.9316L76.3741 34.0839L76.4249 34.3126L76.4757 34.0839L77.9182 29.7649H78.8272L79.42 35.1425H78.7453L78.3247 30.8376L78.3021 30.5186L78.2146 30.8376L76.7495 35.0691H76.0918L74.6211 30.8319L74.5251 30.5214L74.5025 30.8319L74.0875 35.1453H73.4213L73.4241 35.1425ZM81.9917 35.2159C81.7207 35.2159 81.4751 35.1651 81.2521 35.0635C81.0319 34.9619 80.8428 34.8207 80.6875 34.6429C80.5322 34.4594 80.4137 34.2477 80.329 34.0021C80.2443 33.7565 80.202 33.4855 80.202 33.1947C80.202 32.7967 80.2754 32.4495 80.4193 32.1587C80.5661 31.8651 80.7778 31.6393 81.0488 31.4812C81.3198 31.3203 81.6417 31.2413 82.0143 31.2413C82.2683 31.2413 82.4942 31.2977 82.6889 31.4106C82.8837 31.5207 83.039 31.6732 83.1576 31.8679C83.2789 32.0599 83.3523 32.2801 83.3806 32.5257C83.4088 32.7713 83.3834 33.0253 83.3015 33.2879H81.1561C81.2069 33.1467 81.2803 33.031 81.3735 32.9378C81.4695 32.8418 81.605 32.7939 81.7828 32.7939H82.7228C82.7454 32.6047 82.7228 32.4325 82.6551 32.2801C82.5901 32.1248 82.4942 32.0006 82.3671 31.9103C82.2401 31.82 82.099 31.7748 81.9381 31.7748C81.732 31.7748 81.5485 31.8312 81.3904 31.9413C81.2323 32.0514 81.1081 32.2151 81.0206 32.4297C80.9331 32.6414 80.8879 32.8983 80.8879 33.2032C80.8879 33.508 80.9387 33.7537 81.0404 33.9767C81.1448 34.1997 81.2831 34.3719 81.461 34.4989C81.6388 34.6231 81.8393 34.6824 82.0651 34.6824C82.2345 34.6824 82.3954 34.6654 82.5506 34.6316C82.7031 34.5949 82.8837 34.5243 83.0954 34.417L83.2789 34.9054C83.0418 35.0268 82.8132 35.1086 82.5901 35.1482C82.3671 35.1933 82.1695 35.2159 81.9917 35.2159ZM85.6671 35.2159C85.3227 35.2159 85.0263 35.1284 84.7836 34.9534C84.5408 34.7755 84.3573 34.5356 84.2274 34.2335C84.1004 33.9315 84.0383 33.5899 84.0383 33.2116C84.0383 32.9152 84.0863 32.6499 84.1795 32.4128C84.2754 32.1728 84.4053 31.9696 84.569 31.7974C84.7327 31.628 84.9162 31.4981 85.1195 31.4078C85.3256 31.3175 85.5373 31.2695 85.7546 31.2695C85.8647 31.2695 85.9833 31.278 86.1047 31.2949C86.2317 31.3118 86.3587 31.3457 86.4942 31.3937C86.4265 31.5151 86.339 31.6139 86.2289 31.6901C86.1188 31.7663 85.9748 31.803 85.7998 31.8002C85.6304 31.7945 85.4667 31.8397 85.3086 31.9357C85.1534 32.0288 85.0263 32.1813 84.9247 32.3902C84.8231 32.5962 84.7723 32.8672 84.7723 33.2032C84.7723 33.4883 84.8118 33.7424 84.888 33.9654C84.967 34.1884 85.08 34.3606 85.2296 34.4876C85.3792 34.6146 85.5627 34.6767 85.78 34.6767C85.9494 34.6767 86.116 34.6344 86.2797 34.5469C86.4434 34.4565 86.5987 34.321 86.7483 34.1376V29.5306H87.4371V33.8722C87.4371 34.1686 87.4484 34.4198 87.471 34.6316C87.4936 34.8376 87.519 35.007 87.5472 35.1369H87.0504C86.9911 35.0861 86.9431 35.0296 86.9036 34.9731C86.8669 34.9139 86.8302 34.8348 86.7935 34.736L86.7794 34.6175L86.7201 34.7445C86.5705 34.9167 86.3954 35.0381 86.195 35.1058C85.9974 35.1736 85.8224 35.2103 85.6699 35.2103L85.6671 35.2159ZM88.5267 35.1425V31.3175H89.2381V35.1425H88.5267ZM88.8824 30.6541C88.7554 30.6541 88.6509 30.6117 88.5634 30.527C88.4788 30.4424 88.4392 30.3351 88.4392 30.2081C88.4392 30.081 88.4816 29.9709 88.5634 29.8862C88.6453 29.8016 88.7554 29.7564 88.8824 29.7564C89.0095 29.7564 89.1196 29.7987 89.2014 29.8862C89.2861 29.9709 89.3285 30.0782 89.3285 30.2081C89.3285 30.3379 89.2861 30.4395 89.2014 30.527C89.1196 30.6117 89.0151 30.6541 88.8824 30.6541ZM91.7731 35.2187C91.4428 35.2187 91.1408 35.1425 90.8698 34.9901C90.6016 34.8376 90.387 34.6118 90.2261 34.3154C90.0681 34.019 89.989 33.6577 89.989 33.2286C89.989 32.7995 90.0709 32.441 90.2318 32.1474C90.3983 31.851 90.6157 31.628 90.8867 31.4755C91.1577 31.3231 91.4541 31.2469 91.7703 31.2469C91.903 31.2469 92.0497 31.2582 92.2106 31.2836C92.3716 31.3062 92.524 31.3457 92.6736 31.4021L92.5042 31.882C92.3631 31.8453 92.2332 31.82 92.1147 31.803C91.9961 31.7861 91.8832 31.7776 91.7703 31.7776C91.584 31.7776 91.4089 31.8284 91.248 31.9329C91.09 32.0373 90.9629 32.1954 90.8641 32.4099C90.7681 32.6245 90.7202 32.8955 90.7202 33.2258C90.7202 33.556 90.7681 33.8327 90.8641 34.0472C90.9601 34.2618 91.0871 34.4227 91.2452 34.5271C91.4061 34.6316 91.5812 34.6824 91.7703 34.6824C91.8776 34.6824 91.9989 34.6654 92.1288 34.6344C92.2615 34.6005 92.4139 34.5441 92.5833 34.4678L92.7668 34.9562C92.5663 35.055 92.38 35.1228 92.205 35.1595C92.03 35.1962 91.8832 35.2159 91.7675 35.2159L91.7731 35.2187ZM94.2714 35.2187C94.0145 35.2187 93.7915 35.1736 93.6052 35.0832C93.4189 34.9901 93.2777 34.863 93.1761 34.705C93.0773 34.5469 93.0293 34.369 93.0293 34.1686C93.0293 33.9202 93.0942 33.7141 93.2241 33.5504C93.3539 33.3838 93.5685 33.2512 93.8677 33.1524C94.1697 33.0507 94.5706 32.9717 95.0759 32.9124C95.0674 32.9717 95.0449 33.0423 95.0082 33.1241C94.9771 33.206 94.9235 33.2794 94.8501 33.35C94.7767 33.4177 94.6751 33.4629 94.5424 33.4827C94.325 33.5165 94.1613 33.5673 94.0455 33.6351C93.9354 33.7028 93.8592 33.7791 93.8169 33.8637C93.7774 33.9484 93.7576 34.0359 93.7576 34.1263C93.7576 34.2759 93.8112 34.4086 93.9213 34.5215C94.0314 34.6316 94.1782 34.688 94.3645 34.688C94.5311 34.688 94.7005 34.6457 94.8699 34.5638C95.0392 34.4791 95.1973 34.3436 95.3384 34.1573V32.7741C95.3384 32.4805 95.2679 32.2434 95.1239 32.0599C94.9827 31.8764 94.7456 31.7832 94.4069 31.7832C94.2742 31.7832 94.1415 31.7974 94.0117 31.8228C93.8818 31.8482 93.7266 31.8962 93.5487 31.9583L93.3793 31.501C93.6221 31.3965 93.8338 31.3288 94.0201 31.2977C94.2065 31.2666 94.3786 31.2497 94.5424 31.2497C95.0166 31.2497 95.3836 31.388 95.6433 31.6647C95.9059 31.9385 96.0357 32.3253 96.0357 32.8249V33.8835C96.0357 34.1799 96.047 34.4311 96.0696 34.6429C96.095 34.8489 96.1232 35.0183 96.1543 35.1482H95.6518C95.584 35.1058 95.5276 35.0522 95.4881 34.9844C95.4485 34.9195 95.4147 34.8461 95.3836 34.7699L95.3751 34.6372L95.2933 34.7699C95.107 34.9562 94.9319 35.0804 94.771 35.1369C94.6101 35.1933 94.4408 35.2216 94.2629 35.2216L94.2714 35.2187ZM97.0689 35.1453V29.539H97.7436V35.1453H97.0689ZM103.133 35.2328C102.627 35.2328 102.173 35.1228 101.769 34.8997C101.365 34.6767 101.044 34.3549 100.806 33.9428C100.572 33.5278 100.456 33.0366 100.456 32.4664C100.456 32.0514 100.524 31.676 100.66 31.3344C100.795 30.9928 100.984 30.6964 101.227 30.448C101.47 30.1996 101.755 30.0076 102.077 29.875C102.401 29.7395 102.754 29.6717 103.135 29.6717C103.341 29.6717 103.556 29.6915 103.776 29.7338C103.999 29.7733 104.222 29.8354 104.445 29.9229L104.253 30.4028C104.039 30.3323 103.841 30.2814 103.66 30.256C103.48 30.225 103.305 30.2109 103.135 30.2109C102.881 30.2109 102.639 30.2589 102.407 30.352C102.176 30.4452 101.969 30.5863 101.789 30.7726C101.611 30.959 101.47 31.1961 101.368 31.4784C101.264 31.7607 101.213 32.0881 101.213 32.4664C101.213 32.8023 101.264 33.1072 101.368 33.381C101.473 33.6548 101.611 33.8891 101.789 34.0867C101.969 34.2843 102.176 34.4368 102.407 34.5412C102.639 34.6485 102.881 34.6993 103.135 34.6993C103.305 34.6993 103.483 34.6767 103.669 34.6316C103.855 34.5864 104.05 34.513 104.253 34.4086L104.445 34.8885C104.217 35.0098 103.991 35.0945 103.771 35.1482C103.553 35.2018 103.341 35.23 103.135 35.23L103.133 35.2328ZM106.181 35.2187C105.924 35.2187 105.704 35.1736 105.515 35.0832C105.332 34.9901 105.188 34.863 105.086 34.705C104.987 34.5469 104.939 34.369 104.939 34.1686C104.939 33.9202 105.004 33.7141 105.134 33.5504C105.264 33.3838 105.478 33.2512 105.778 33.1524C106.08 33.0507 106.481 32.9717 106.986 32.9124C106.975 32.9717 106.955 33.0423 106.918 33.1241C106.887 33.206 106.833 33.2794 106.76 33.35C106.687 33.4177 106.585 33.4629 106.452 33.4827C106.235 33.5165 106.071 33.5673 105.955 33.6351C105.845 33.7028 105.769 33.7791 105.727 33.8637C105.687 33.9484 105.668 34.0359 105.668 34.1263C105.668 34.2759 105.721 34.4086 105.831 34.5215C105.938 34.6316 106.088 34.688 106.274 34.688C106.441 34.688 106.61 34.6457 106.78 34.5638C106.949 34.4791 107.107 34.3436 107.248 34.1573V32.7741C107.248 32.4805 107.178 32.2434 107.034 32.0599C106.893 31.8764 106.656 31.7832 106.317 31.7832C106.184 31.7832 106.051 31.7974 105.922 31.8228C105.792 31.8482 105.636 31.8962 105.459 31.9583L105.289 31.501C105.532 31.3965 105.744 31.3288 105.93 31.2977C106.116 31.2666 106.289 31.2497 106.452 31.2497C106.927 31.2497 107.294 31.388 107.553 31.6647C107.816 31.9385 107.946 32.3253 107.946 32.8249V33.8835C107.946 34.1799 107.957 34.4311 107.979 34.6429C108.005 34.8489 108.033 35.0183 108.064 35.1482H107.562C107.494 35.1058 107.437 35.0522 107.398 34.9844C107.358 34.9195 107.325 34.8461 107.294 34.7699L107.285 34.6372L107.203 34.7699C107.017 34.9562 106.842 35.0804 106.681 35.1369C106.52 35.1933 106.351 35.2216 106.176 35.2216L106.181 35.2187ZM109.97 35.2187C109.783 35.2187 109.58 35.2018 109.366 35.1679C109.154 35.1369 108.903 35.0494 108.615 34.9082L108.792 34.4198C108.982 34.5102 109.174 34.5779 109.363 34.6231C109.552 34.6655 109.724 34.6852 109.882 34.6852C110.105 34.6852 110.269 34.6344 110.376 34.5299C110.486 34.4255 110.54 34.2928 110.54 34.1319C110.54 33.9964 110.498 33.8835 110.41 33.796C110.323 33.7057 110.212 33.6294 110.077 33.5589C109.941 33.4911 109.797 33.4205 109.645 33.3528C109.493 33.2822 109.349 33.2004 109.213 33.11C109.078 33.0169 108.968 32.9011 108.88 32.7628C108.792 32.6245 108.75 32.4523 108.75 32.249C108.75 32.0909 108.795 31.9385 108.883 31.7861C108.973 31.6336 109.106 31.5066 109.281 31.4078C109.459 31.3062 109.676 31.2554 109.933 31.2554C110.074 31.2554 110.227 31.2695 110.396 31.2949C110.565 31.3231 110.754 31.3739 110.96 31.4473L110.791 31.9272C110.636 31.8764 110.492 31.8369 110.359 31.8171C110.229 31.7917 110.111 31.7804 110.009 31.7804C109.84 31.7804 109.699 31.8199 109.583 31.899C109.473 31.978 109.416 32.0938 109.416 32.2462C109.416 32.3761 109.459 32.4862 109.546 32.5765C109.634 32.6668 109.744 32.743 109.879 32.8136C110.015 32.8814 110.159 32.9548 110.311 33.0281C110.464 33.0987 110.608 33.1834 110.743 33.2794C110.879 33.3754 110.989 33.4939 111.076 33.6379C111.164 33.7791 111.206 33.9569 111.206 34.1714C111.206 34.3578 111.15 34.5328 111.031 34.6937C110.915 34.8518 110.763 34.9788 110.577 35.0776C110.39 35.1736 110.187 35.2216 109.97 35.2216V35.2187ZM113.484 35.2187C113.213 35.2187 112.968 35.1679 112.745 35.0663C112.524 34.9647 112.335 34.8235 112.18 34.6457C112.025 34.4622 111.906 34.2505 111.821 34.0049C111.737 33.7593 111.694 33.4883 111.694 33.1975C111.694 32.7995 111.768 32.4523 111.912 32.1615C112.059 31.8679 112.27 31.6421 112.541 31.484C112.812 31.3231 113.134 31.2441 113.507 31.2441C113.761 31.2441 113.987 31.3005 114.181 31.4134C114.376 31.5235 114.531 31.676 114.65 31.8708C114.771 32.0627 114.845 32.2829 114.873 32.5285C114.904 32.7741 114.876 33.0281 114.797 33.2907H112.651C112.702 33.1495 112.776 33.0338 112.869 32.9406C112.965 32.8447 113.1 32.7967 113.278 32.7967H114.218C114.241 32.6075 114.218 32.4353 114.15 32.2829C114.085 32.1277 113.989 32.0034 113.862 31.9131C113.735 31.8228 113.594 31.7776 113.433 31.7776C113.227 31.7776 113.044 31.8341 112.886 31.9442C112.728 32.0543 112.603 32.218 112.516 32.4325C112.428 32.6442 112.383 32.9011 112.383 33.206C112.383 33.5109 112.434 33.7565 112.536 33.9795C112.64 34.2025 112.778 34.3747 112.956 34.5017C113.134 34.6259 113.335 34.6852 113.56 34.6852C113.73 34.6852 113.894 34.6683 114.046 34.6344C114.198 34.5977 114.379 34.5271 114.591 34.4198L114.774 34.9082C114.537 35.0296 114.308 35.1115 114.085 35.151C113.862 35.1962 113.665 35.2187 113.487 35.2187H113.484ZM117.417 35.1453L118.015 29.7677H118.924L120.366 34.0867L120.417 34.3154L120.468 34.0867L121.911 29.7677H122.82L123.412 35.1453H122.741L122.32 30.8404L122.297 30.5214L122.207 30.8404L120.742 35.0719H120.084L118.613 30.8348L118.517 30.5242L118.495 30.8348L118.08 35.1482H117.414L117.417 35.1453ZM125.363 35.2187C125.106 35.2187 124.886 35.1736 124.697 35.0832C124.513 34.9901 124.369 34.863 124.268 34.705C124.169 34.5469 124.121 34.369 124.121 34.1686C124.121 33.9202 124.186 33.7141 124.319 33.5504C124.448 33.3838 124.663 33.2512 124.962 33.1524C125.264 33.0507 125.665 32.9717 126.17 32.9124C126.159 32.9717 126.139 33.0423 126.103 33.1241C126.072 33.206 126.018 33.2794 125.945 33.35C125.871 33.4177 125.77 33.4629 125.637 33.4827C125.419 33.5165 125.256 33.5673 125.14 33.6351C125.03 33.7028 124.954 33.7791 124.911 33.8637C124.872 33.9484 124.852 34.0359 124.852 34.1263C124.852 34.2759 124.906 34.4086 125.016 34.5215C125.123 34.6316 125.273 34.688 125.459 34.688C125.626 34.688 125.795 34.6457 125.964 34.5638C126.134 34.4791 126.292 34.3436 126.433 34.1573V32.7741C126.433 32.4805 126.362 32.2434 126.218 32.0599C126.077 31.8764 125.84 31.7832 125.501 31.7832C125.369 31.7832 125.236 31.7974 125.106 31.8228C124.976 31.851 124.821 31.8962 124.643 31.9583L124.474 31.501C124.717 31.3965 124.928 31.3288 125.115 31.2977C125.301 31.2666 125.473 31.2497 125.637 31.2497C126.111 31.2497 126.478 31.388 126.738 31.6647C127 31.9385 127.13 32.3253 127.13 32.8249V33.8835C127.13 34.1799 127.141 34.4311 127.164 34.6429C127.189 34.8489 127.218 35.0183 127.249 35.1482H126.746C126.678 35.1058 126.622 35.0522 126.583 34.9844C126.543 34.9195 126.509 34.8461 126.478 34.7699L126.47 34.6372L126.388 34.7699C126.201 34.9562 126.026 35.0804 125.865 35.1369C125.705 35.1933 125.535 35.2216 125.36 35.2216L125.363 35.2187ZM130.588 35.1453V32.3648C130.588 32.1954 130.549 32.0543 130.473 31.947C130.396 31.8369 130.281 31.7804 130.128 31.7804C130.069 31.7804 130.018 31.7861 129.973 31.8002C129.928 31.8115 129.874 31.8256 129.809 31.8397C129.665 31.8708 129.532 31.8736 129.408 31.8425C129.284 31.8143 129.171 31.7437 129.067 31.6393C129.329 31.484 129.549 31.3796 129.724 31.3288C129.902 31.2751 130.058 31.2469 130.19 31.2469C130.388 31.2469 130.568 31.2836 130.738 31.3542C130.904 31.4247 131.04 31.5489 131.142 31.7211C131.243 31.8933 131.294 32.1333 131.294 32.4382V35.1453H130.583H130.588ZM128.163 35.1453V32.2547C128.163 32.1163 128.155 31.9696 128.138 31.8143C128.124 31.659 128.096 31.4953 128.053 31.3231H128.587C128.705 31.4558 128.784 31.5885 128.821 31.7183C128.858 31.8482 128.878 31.9893 128.878 32.1361V35.1453H128.163ZM133.374 35.2187C133.118 35.2187 132.895 35.1736 132.708 35.0832C132.522 34.9901 132.381 34.863 132.279 34.705C132.18 34.5469 132.132 34.369 132.132 34.1686C132.132 33.9202 132.197 33.7141 132.327 33.5504C132.457 33.3838 132.672 33.2512 132.971 33.1524C133.273 33.0507 133.674 32.9717 134.179 32.9124C134.171 32.9717 134.148 33.0423 134.111 33.1241C134.08 33.206 134.027 33.2794 133.953 33.35C133.88 33.4177 133.778 33.4629 133.645 33.4827C133.428 33.5165 133.264 33.5673 133.151 33.6351C133.041 33.7028 132.965 33.7791 132.923 33.8637C132.883 33.9484 132.864 34.0359 132.864 34.1263C132.864 34.2759 132.917 34.4086 133.027 34.5215C133.137 34.6316 133.284 34.688 133.47 34.688C133.637 34.688 133.806 34.6457 133.976 34.5638C134.145 34.4791 134.303 34.3436 134.444 34.1573V32.7741C134.444 32.4805 134.374 32.2434 134.23 32.0599C134.089 31.8764 133.852 31.7832 133.513 31.7832C133.38 31.7832 133.247 31.7974 133.118 31.8228C132.988 31.8482 132.832 31.8962 132.655 31.9583L132.485 31.501C132.728 31.3965 132.94 31.3288 133.126 31.2977C133.312 31.2666 133.485 31.2497 133.648 31.2497C134.123 31.2497 134.49 31.388 134.752 31.6647C135.012 31.9385 135.144 32.3253 135.144 32.8249V33.8835C135.144 34.1799 135.156 34.4311 135.178 34.6429C135.204 34.8489 135.232 35.0183 135.263 35.1482H134.761C134.693 35.1058 134.636 35.0522 134.597 34.9844C134.557 34.9195 134.523 34.8461 134.492 34.7699L134.484 34.6372L134.402 34.7699C134.216 34.9562 134.041 35.0804 133.88 35.1369C133.719 35.1933 133.549 35.2216 133.372 35.2216L133.374 35.2187ZM137.459 36.9944C137.267 36.9944 137.056 36.9718 136.827 36.9323C136.601 36.8927 136.364 36.8109 136.121 36.6838L136.313 36.1814C136.525 36.2858 136.72 36.3564 136.897 36.3987C137.078 36.4411 137.245 36.4608 137.4 36.4608C137.606 36.4608 137.798 36.4157 137.97 36.3281C138.142 36.2406 138.281 36.1051 138.385 35.9216C138.49 35.7382 138.54 35.5067 138.54 35.2272V31.8623C138.427 31.8341 138.32 31.8115 138.219 31.8002C138.12 31.7889 138.015 31.7804 137.905 31.7804C137.535 31.7804 137.236 31.9074 137.01 32.1615C136.785 32.4156 136.669 32.7797 136.669 33.254C136.669 33.5335 136.706 33.7819 136.779 34.0021C136.855 34.2194 136.968 34.386 137.12 34.5045C137.273 34.6231 137.462 34.6711 137.691 34.6457C137.798 34.6344 137.905 34.6457 138.004 34.6909C138.106 34.7332 138.199 34.8094 138.289 34.9195C138.168 35.0014 138.044 35.0635 137.911 35.1086C137.781 35.1538 137.66 35.182 137.55 35.1933C137.329 35.2103 137.123 35.1764 136.929 35.0945C136.737 35.0098 136.567 34.88 136.418 34.705C136.271 34.5328 136.155 34.3239 136.07 34.0755C135.986 33.8299 135.943 33.556 135.943 33.254C135.943 32.8531 136.028 32.5003 136.195 32.201C136.361 31.899 136.593 31.6675 136.886 31.501C137.183 31.3344 137.521 31.2497 137.902 31.2497C138.041 31.2497 138.176 31.2582 138.312 31.2751C138.447 31.2892 138.588 31.3147 138.732 31.3485C138.879 31.3824 139.04 31.4276 139.209 31.4868V35.1482C139.209 35.5151 139.139 35.837 138.995 36.1136C138.854 36.3931 138.653 36.6104 138.388 36.7657C138.125 36.921 137.815 37 137.456 37L137.459 36.9944ZM141.826 35.2187C141.555 35.2187 141.31 35.1679 141.087 35.0663C140.866 34.9647 140.677 34.8235 140.519 34.6457C140.364 34.4622 140.245 34.2505 140.161 34.0049C140.076 33.7593 140.034 33.4883 140.034 33.1975C140.034 32.7995 140.107 32.4523 140.251 32.1615C140.398 31.8679 140.61 31.6421 140.881 31.484C141.152 31.3231 141.473 31.2441 141.846 31.2441C142.1 31.2441 142.323 31.3005 142.518 31.4134C142.713 31.5235 142.868 31.676 142.986 31.8708C143.108 32.0627 143.181 32.2829 143.21 32.5285C143.238 32.7741 143.212 33.0281 143.13 33.2907H140.985C141.036 33.1495 141.109 33.0338 141.202 32.9406C141.298 32.8447 141.437 32.7967 141.612 32.7967H142.552C142.574 32.6075 142.552 32.4353 142.484 32.2829C142.419 32.1277 142.323 32.0034 142.196 31.9131C142.069 31.8228 141.928 31.7776 141.767 31.7776C141.561 31.7776 141.377 31.8341 141.219 31.9442C141.061 32.0543 140.937 32.218 140.85 32.4325C140.762 32.6442 140.717 32.9011 140.717 33.206C140.717 33.5109 140.768 33.7565 140.869 33.9795C140.974 34.2025 141.115 34.3747 141.29 34.5017C141.468 34.6259 141.668 34.6852 141.894 34.6852C142.063 34.6852 142.224 34.6683 142.38 34.6344C142.532 34.5977 142.713 34.5271 142.924 34.4198L143.111 34.9082C142.874 35.0296 142.645 35.1115 142.422 35.151C142.199 35.1962 142.001 35.2187 141.823 35.2187H141.826ZM148.884 35.1453V32.3648C148.884 32.1954 148.844 32.0543 148.768 31.947C148.694 31.8369 148.579 31.7804 148.423 31.7804C148.364 31.7804 148.308 31.7861 148.257 31.8002C148.206 31.8115 148.15 31.8256 148.082 31.8397C147.938 31.8708 147.805 31.8736 147.684 31.8425C147.56 31.8143 147.447 31.7437 147.342 31.6393C147.605 31.484 147.831 31.3796 148.014 31.3288C148.2 31.2751 148.361 31.2469 148.494 31.2469C148.689 31.2469 148.869 31.2836 149.033 31.3542C149.2 31.4247 149.335 31.5489 149.437 31.7211C149.538 31.8933 149.589 32.1333 149.589 32.4382V35.1453H148.878H148.884ZM144.127 35.1453V32.2547C144.127 32.1163 144.118 31.9696 144.102 31.8143C144.087 31.659 144.059 31.4953 144.017 31.3231H144.55C144.669 31.4558 144.745 31.5885 144.785 31.7183C144.821 31.8482 144.841 31.9893 144.841 32.1361V35.1453H144.127ZM146.51 35.1453V32.3648C146.51 32.1954 146.473 32.0543 146.402 31.947C146.334 31.8369 146.227 31.7804 146.08 31.7804C146.021 31.7804 145.97 31.7861 145.925 31.7945C145.88 31.803 145.826 31.8171 145.761 31.8312C145.617 31.8623 145.488 31.8651 145.369 31.8341C145.25 31.803 145.14 31.7353 145.036 31.6308C145.298 31.4756 145.519 31.3739 145.694 31.3231C145.872 31.2723 146.027 31.2469 146.159 31.2469C146.351 31.2469 146.529 31.2836 146.687 31.3542C146.848 31.4247 146.975 31.5489 147.071 31.7211C147.167 31.8933 147.215 32.1333 147.215 32.4382V35.1453H146.504H146.51ZM152.229 35.2187C151.958 35.2187 151.712 35.1679 151.489 35.0663C151.269 34.9647 151.08 34.8235 150.925 34.6457C150.769 34.4622 150.651 34.2505 150.566 34.0049C150.481 33.7593 150.439 33.4883 150.439 33.1975C150.439 32.7995 150.512 32.4523 150.656 32.1615C150.803 31.8679 151.015 31.6421 151.286 31.484C151.557 31.3231 151.879 31.2441 152.251 31.2441C152.505 31.2441 152.731 31.3005 152.926 31.4134C153.121 31.5235 153.276 31.676 153.395 31.8708C153.516 32.0627 153.589 32.2829 153.618 32.5285C153.646 32.7741 153.62 33.0281 153.539 33.2907H151.393C151.444 33.1495 151.517 33.0338 151.611 32.9406C151.706 32.8447 151.845 32.7967 152.02 32.7967H152.96C152.982 32.6075 152.96 32.4353 152.892 32.2829C152.827 32.1277 152.731 32.0034 152.604 31.9131C152.477 31.8228 152.336 31.7776 152.175 31.7776C151.969 31.7776 151.786 31.8341 151.627 31.9442C151.469 32.0543 151.345 32.218 151.258 32.4325C151.167 32.6442 151.125 32.9011 151.125 33.206C151.125 33.5109 151.176 33.7565 151.277 33.9795C151.382 34.2025 151.52 34.3747 151.698 34.5017C151.876 34.6259 152.076 34.6852 152.302 34.6852C152.471 34.6852 152.632 34.6683 152.788 34.6344C152.94 34.5977 153.121 34.5271 153.333 34.4198L153.519 34.9082C153.282 35.0296 153.053 35.1115 152.83 35.151C152.607 35.1962 152.409 35.2187 152.232 35.2187H152.229ZM156.954 35.1453V32.3648C156.954 32.1954 156.915 32.0543 156.839 31.947C156.762 31.8369 156.647 31.7804 156.494 31.7804C156.435 31.7804 156.384 31.7861 156.339 31.8002C156.294 31.8115 156.24 31.8256 156.175 31.8397C156.031 31.8708 155.899 31.8736 155.774 31.8425C155.65 31.8143 155.537 31.7437 155.433 31.6393C155.695 31.484 155.915 31.3796 156.09 31.3288C156.268 31.2751 156.424 31.2469 156.556 31.2469C156.754 31.2469 156.935 31.2836 157.104 31.3542C157.27 31.4247 157.406 31.5489 157.508 31.7211C157.609 31.8933 157.66 32.1333 157.66 32.4382V35.1453H156.949H156.954ZM154.529 35.1453V32.2547C154.529 32.1163 154.521 31.9696 154.504 31.8143C154.49 31.659 154.462 31.4953 154.419 31.3231H154.953C155.071 31.4558 155.148 31.5885 155.187 31.7183C155.224 31.8482 155.244 31.9893 155.244 32.1361V35.1453H154.529ZM160.164 35.2272C159.763 35.2272 159.453 35.0945 159.235 34.832C159.021 34.5695 158.913 34.2025 158.913 33.7339V31.8341H158.233V31.501L158.913 31.3231V30.3464L159.566 30.1403V33.8158C159.566 34.0698 159.619 34.2843 159.729 34.4565C159.839 34.6259 159.986 34.7106 160.167 34.7106C160.263 34.7106 160.356 34.7021 160.443 34.6852C160.534 34.6683 160.644 34.64 160.774 34.6005L160.937 35.0663C160.751 35.1284 160.604 35.1708 160.5 35.1933C160.395 35.2187 160.285 35.23 160.167 35.23L160.164 35.2272ZM160.452 31.8312C160.336 31.8312 160.237 31.8087 160.155 31.7635C160.076 31.7155 160.009 31.6562 159.955 31.58C159.904 31.5009 159.862 31.4163 159.828 31.3203H160.87V31.8312H160.449H160.452Z" fill="#1E3A8A"/>
<path d="M15.3313 36.5766C15.3313 36.5766 14.0271 25.0224 17.5642 21.3017C20.2234 18.5071 24.3533 18.3179 25.522 18.157C26.6907 17.9961 33.9089 17.8126 35.5575 18.1231C35.5575 18.1231 29.1071 18.8458 26.2221 19.7463C21.4655 21.2283 20.4916 23.4302 20.0258 29.8947C19.8 33.0253 20.3702 34.9506 15.3313 36.5794V36.5766Z" fill="#1E3A8A"/>
<path d="M20.1952 0C20.1952 0 21.3836 11.4356 17.8521 15.0857C15.1986 17.8267 11.111 17.9763 9.95644 18.126C8.80186 18.2728 1.62882 18.4195 0 18.0977C0 18.0977 6.41367 17.4146 9.27611 16.5508C13.9932 15.128 14.9756 12.9572 15.4922 6.57176C15.7434 3.47784 15.1986 1.56954 20.1923 0.00281706L20.1952 0Z" fill="#D01127"/>
</svg>
